<svg xmlns="http://www.w3.org/2000/svg" viewBox="0 0 24 24"><defs><style>.cls-1{fill:none;}.cls-2{fill:#323232;}</style></defs><g id="Layer_2" data-name="Layer 2"><g id="Icons"><rect class="cls-1" width="24" height="24"/><path class="cls-2" d="M12.54,11.46l-5-5A.75.75,0,0,0,6.47,7.52L10.94,12,6.47,16.46a.75.75,0,0,0,0,1.06.76.76,0,0,0,1.07,0l5-5A.75.75,0,0,0,12.54,11.46Z"/><path class="cls-2" d="M19,11.46l-5-5A.75.75,0,1,0,13,7.52L17.44,12,13,16.46a.75.75,0,0,0,0,1.06.76.76,0,0,0,1.07,0l5-5A.75.75,0,0,0,19,11.46Z"/><rect class="cls-1" width="24" height="24"/></g></g></svg>