<svg xmlns="http://www.w3.org/2000/svg" viewBox="0 0 24.01 24.16"><defs><style>.cls-1{fill:none;}.cls-2{fill:#323232;}</style></defs><g id="Layer_2" data-name="Layer 2"><g id="Icons"><rect class="cls-1" x="0.01" y="0.16" width="24" height="24" transform="translate(24.02 24.32) rotate(-180)"/><path class="cls-2" d="M11.47,11.61l5-5a.75.75,0,0,1,1.06,0,.74.74,0,0,1,0,1.06l-4.47,4.47,4.47,4.47a.74.74,0,0,1,0,1.06.71.71,0,0,1-.53.22.74.74,0,0,1-.53-.22l-5-5A.75.75,0,0,1,11.47,11.61Z"/><path class="cls-2" d="M5,11.61l5-5a.75.75,0,0,1,1.06,0,.74.74,0,0,1,0,1.06L6.56,12.14,11,16.61a.74.74,0,0,1,0,1.06.71.71,0,0,1-.53.22.74.74,0,0,1-.53-.22l-5-5A.75.75,0,0,1,5,11.61Z"/><rect class="cls-1" width="24" height="24" transform="translate(24 24) rotate(-180)"/></g></g></svg>