<svg xmlns="http://www.w3.org/2000/svg" viewBox="0 0 24 24"><defs><style>.cls-1{fill:#323232;}.cls-2{fill:none;}</style></defs><g id="Layer_2" data-name="Layer 2"><g id="Icons"><path class="cls-1" d="M18.86,5.11a9.74,9.74,0,1,0,0,13.77A9.74,9.74,0,0,0,18.86,5.11ZM15,17.9H9a.75.75,0,0,1,0-1.5h6a.75.75,0,1,1,0,1.5Zm.53-6.22-3,3a.74.74,0,0,1-.25.17.92.92,0,0,1-.28.05.93.93,0,0,1-.29-.05.81.81,0,0,1-.24-.17l-3-3a.74.74,0,0,1,0-1.06.75.75,0,0,1,1.06,0l1.72,1.72V7.15a.75.75,0,0,1,1.5,0v5.19l1.72-1.72a.75.75,0,1,1,1.06,1.06Z"/><rect class="cls-2" width="24" height="24"/></g></g></svg>