<svg xmlns="http://www.w3.org/2000/svg" viewBox="0 0 24 24"><defs><style>.cls-1{fill:none;}.cls-2{fill:#323232;fill-rule:evenodd;}</style></defs><g id="Layer_2" data-name="Layer 2"><g id="Icons"><rect class="cls-1" width="24" height="24"/><path class="cls-2" d="M15.49,15.19a.77.77,0,0,0-1.07,0l-1.71,1.72V4.72a.75.75,0,0,0-1.5,0V16.91L9.49,15.19a.77.77,0,0,0-1.07,0,.75.75,0,0,0,0,1.06l3,3a.82.82,0,0,0,.25.16.72.72,0,0,0,.29.06.71.71,0,0,0,.28-.06.82.82,0,0,0,.25-.16l3-3a.75.75,0,0,0,0-1.06"/></g></g></svg>