<svg xmlns="http://www.w3.org/2000/svg" viewBox="0 0 24 24"><defs><style>.cls-1{fill:#323232;}.cls-2{fill:none;}</style></defs><g id="Layer_2" data-name="Layer 2"><g id="Icons"><path class="cls-1" d="M7.53,4.47a.78.78,0,0,0-.24-.16.73.73,0,0,0-.58,0,.78.78,0,0,0-.24.16l-3,3A.75.75,0,1,0,4.53,8.53L6.25,6.81V19a.75.75,0,0,0,1.5,0V6.81L9.47,8.53a.75.75,0,0,0,1.06,0,.75.75,0,0,0,0-1.06Z"/><path class="cls-1" d="M20.53,15.47a.75.75,0,0,0-1.06,0l-1.72,1.72V5a.75.75,0,0,0-1.5,0V17.19l-1.72-1.72a.75.75,0,1,0-1.06,1.06l3,3a.78.78,0,0,0,.24.16.73.73,0,0,0,.58,0,.78.78,0,0,0,.24-.16l3-3A.75.75,0,0,0,20.53,15.47Z"/><rect class="cls-2" width="24" height="24"/></g></g></svg>