<svg xmlns="http://www.w3.org/2000/svg" viewBox="0 0 24 24"><defs><style>.cls-1{fill:#323232;}.cls-2{fill:none;}</style></defs><g id="Layer_2" data-name="Layer 2"><g id="Icons"><path class="cls-1" d="M12,2.23A9.76,9.76,0,1,0,21.71,12,9.76,9.76,0,0,0,12,2.23ZM17.63,14.6l-3,3a.75.75,0,0,1-1.06,0,.75.75,0,0,1,0-1.06l1.74-1.75H8.81A.75.75,0,0,1,8.06,14V7.5a.75.75,0,0,1,1.5,0v5.79h5.71l-1.7-1.69a.75.75,0,0,1,0-1.06.74.74,0,0,1,1.06,0l3,3A.75.75,0,0,1,17.63,14.6Z"/><rect class="cls-2" width="24" height="24"/></g></g></svg>