<svg xmlns="http://www.w3.org/2000/svg" viewBox="0 0 24 24"><defs><style>.cls-1{fill:none;}.cls-2{fill:#323232;}</style></defs><g id="Layer_2" data-name="Layer 2"><g id="Icons"><rect class="cls-1" width="24" height="24"/><path class="cls-2" d="M17.1,7.2a.68.68,0,0,0-.75.59v8.36a.77.77,0,0,0,1.5,0V7.79A.68.68,0,0,0,17.1,7.2Z"/><path class="cls-2" d="M8.68,7.48a.75.75,0,0,0-1.06,0,.74.74,0,0,0,0,1.06L11.09,12,7.62,15.48a.74.74,0,0,0,0,1.06.71.71,0,0,0,.53.22.74.74,0,0,0,.53-.22l4-4a.75.75,0,0,0,0-1.06Z"/></g></g></svg>