<svg xmlns="http://www.w3.org/2000/svg" viewBox="0 0 24 24"><defs><style>.cls-1{fill:#323232;}.cls-2{fill:none;}</style></defs><g id="Layer_2" data-name="Layer 2"><g id="Icons"><path class="cls-1" d="M15.49,11.5a.73.73,0,0,0,.53.22.74.74,0,0,0,.53-.22l3-3a.78.78,0,0,0,.16-.24.73.73,0,0,0,0-.58.78.78,0,0,0-.16-.24l-3-3A.75.75,0,1,0,15.49,5.5l1.72,1.72H10a6.52,6.52,0,0,0-6.75,6.25A6.52,6.52,0,0,0,10,19.72h8a.75.75,0,0,0,0-1.5H10a5,5,0,0,1-5.25-4.75A5,5,0,0,1,10,8.72h7.19l-1.72,1.72A.75.75,0,0,0,15.49,11.5Z"/><rect class="cls-2" width="24" height="24"/></g></g></svg>