<svg xmlns="http://www.w3.org/2000/svg" viewBox="0 0 24 24"><defs><style>.cls-1{fill:#323232;}.cls-2{fill:none;}</style></defs><g id="Layer_2" data-name="Layer 2"><g id="Icons"><path class="cls-1" d="M20,11.28h0a.76.76,0,0,0-.75.75,7.24,7.24,0,0,1-12.37,5.1c-.17-.17-.32-.37-.47-.55H8.05a.75.75,0,1,0,0-1.5H4.51a.75.75,0,0,0-.75.75v3.53a.75.75,0,0,0,1.5,0V17.55a8.42,8.42,0,0,0,.55.64A8.74,8.74,0,0,0,20.74,12,.75.75,0,0,0,20,11.28Z"/><path class="cls-1" d="M4,12.62a.75.75,0,0,0,.75-.74,7.25,7.25,0,0,1,12.38-5c.17.17.32.37.47.55H16a.75.75,0,0,0,0,1.5h3.54a.75.75,0,0,0,.75-.75V4.64a.75.75,0,0,0-1.5,0V6.45a8.42,8.42,0,0,0-.55-.64A8.75,8.75,0,0,0,3.25,11.86a.76.76,0,0,0,.74.76Z"/><rect class="cls-2" width="24" height="24"/></g></g></svg>