<svg xmlns="http://www.w3.org/2000/svg" viewBox="0 0 24 24"><defs><style>.cls-1{fill:#323232;}.cls-2{fill:none;}</style></defs><g id="Layer_2" data-name="Layer 2"><g id="Icons"><path class="cls-1" d="M13.5,3.75A8.26,8.26,0,0,0,5.25,12v0L3.53,10.3a.75.75,0,0,0-1.06,1.06l3,3a.75.75,0,0,0,1.06,0l3-3A.75.75,0,0,0,8.47,10.3L6.74,12v0a6.75,6.75,0,1,1,6.75,6.75A6.69,6.69,0,0,1,10.4,18a.75.75,0,1,0-.68,1.33A8.25,8.25,0,1,0,13.5,3.75Zm-7.5,9,0,0H6Z"/><rect class="cls-2" width="24" height="24"/></g></g></svg>