<svg xmlns="http://www.w3.org/2000/svg" viewBox="0 0 24 24"><defs><style>.cls-1{fill:#323232;}.cls-2{fill:none;}</style></defs><g id="Layer_2" data-name="Layer 2"><g id="Icons"><path class="cls-1" d="M14,7.25H6.81L8.53,5.53A.75.75,0,1,0,7.47,4.47l-3,3a.78.78,0,0,0-.16.24.73.73,0,0,0,0,.58.78.78,0,0,0,.16.24l3,3a.75.75,0,0,0,1.06,0,.75.75,0,0,0,0-1.06L6.81,8.75H14a5,5,0,0,1,5.25,4.75A5,5,0,0,1,14,18.25H6a.75.75,0,0,0,0,1.5h8a6.52,6.52,0,0,0,6.75-6.25A6.52,6.52,0,0,0,14,7.25Z"/><rect class="cls-2" width="24" height="24"/></g></g></svg>