<svg xmlns="http://www.w3.org/2000/svg" viewBox="0 0 24 24"><defs><style>.cls-1{fill:none;}.cls-2{fill:#323232;}</style></defs><g id="Layer_2" data-name="Layer 2"><g id="Icons"><rect class="cls-1" width="24" height="24"/><path class="cls-2" d="M16.26,8.9a15.8,15.8,0,0,1-8.52,0,.75.75,0,0,0-1,.48.75.75,0,0,0,.48.95,13.22,13.22,0,0,0,2.65.53,17.1,17.1,0,0,1-.63,5.91.74.74,0,0,0,.48.94.59.59,0,0,0,.23,0,.74.74,0,0,0,.71-.52,12.5,12.5,0,0,0,.57-2.58h1.44a12.5,12.5,0,0,0,.57,2.58.74.74,0,0,0,.71.52.59.59,0,0,0,.23,0,.74.74,0,0,0,.48-.94,17.1,17.1,0,0,1-.63-5.91,13.46,13.46,0,0,0,2.66-.53.76.76,0,0,0,.47-.95A.75.75,0,0,0,16.26,8.9Zm-3.65,4.25H11.39c0-.63,0-1.35,0-2.18L12,11l.58,0C12.59,11.8,12.59,12.52,12.61,13.15Z"/><path class="cls-2" d="M12,2.25A9.75,9.75,0,1,0,21.75,12,9.76,9.76,0,0,0,12,2.25Zm0,18A8.25,8.25,0,1,1,20.25,12,8.26,8.26,0,0,1,12,20.25Z"/><path class="cls-2" d="M12,8.47a1.22,1.22,0,1,0-1.23-1.22A1.22,1.22,0,0,0,12,8.47ZM12,7a.28.28,0,0,1,.27.28c0,.3-.55.3-.55,0A.29.29,0,0,1,12,7Z"/></g></g></svg>