<svg xmlns="http://www.w3.org/2000/svg" viewBox="0 0 24 24"><defs><style>.cls-1{fill:#323232;}.cls-2{fill:none;}</style></defs><g id="Layer_2" data-name="Layer 2"><g id="Icons"><path class="cls-1" d="M7.5,17.6a1.13,1.13,0,0,0-1.12-1.13h0a1.11,1.11,0,0,0-.79.33,1.15,1.15,0,0,0-.33.8,1.13,1.13,0,0,0,2.25,0Z"/><path class="cls-1" d="M19,13.22H16.76l2.46-2.45a2.76,2.76,0,0,0,0-3.89L17.09,4.76a2.75,2.75,0,0,0-3.88,0L10.75,7.21V5A2.75,2.75,0,0,0,8,2.22H5A2.75,2.75,0,0,0,2.25,5v12.5A4.25,4.25,0,0,0,6.5,21.72H19A2.75,2.75,0,0,0,21.75,19V16A2.75,2.75,0,0,0,19,13.22Zm-4.73-7.4a1.24,1.24,0,0,1,1.76,0l2.13,2.12a1.27,1.27,0,0,1,0,1.77l-7.41,7.4V9.33ZM3.75,17.47V5A1.25,1.25,0,0,1,5,3.72H8A1.25,1.25,0,0,1,9.25,5v12.5a2.75,2.75,0,0,1-5.5,0ZM20.25,19A1.25,1.25,0,0,1,19,20.22H9.76l5.5-5.5H19A1.25,1.25,0,0,1,20.25,16Z"/><rect class="cls-2" width="24" height="24"/></g></g></svg>