<svg xmlns="http://www.w3.org/2000/svg" viewBox="0 0 24 24"><defs><style>.cls-1{fill:none;}.cls-2{fill:#323232;}</style></defs><g id="Layer_2" data-name="Layer 2"><g id="Icons"><rect class="cls-1" width="24" height="24"/><path class="cls-2" d="M10,13.75H4a.76.76,0,0,0-.75.75v6a.76.76,0,0,0,.75.75h6a.76.76,0,0,0,.75-.75v-6A.76.76,0,0,0,10,13.75Zm-.75,6H4.75v-4.5h4.5Z"/><path class="cls-2" d="M17.5,13.25a4.25,4.25,0,1,0,4.25,4.25A4.26,4.26,0,0,0,17.5,13.25Zm0,7a2.75,2.75,0,1,1,2.75-2.75A2.75,2.75,0,0,1,17.5,20.25Z"/><path class="cls-2" d="M7.5,10.75h9a.75.75,0,0,0,.63-1.16l-4.5-7a.79.79,0,0,0-1.26,0l-4.5,7a.75.75,0,0,0,.63,1.16ZM12,4.39l3.13,4.86H8.87Z"/></g></g></svg>