<svg xmlns="http://www.w3.org/2000/svg" viewBox="0 0 24 24"><defs><style>.cls-1{fill:none;}.cls-2{fill:#323232;}</style></defs><g id="Layer_2" data-name="Layer 2"><g id="Icons"><rect class="cls-1" width="24" height="24"/><path class="cls-2" d="M22.43,9.39l-10-7a.75.75,0,0,0-.86,0l-10,7a.75.75,0,0,0,.86,1.22L3.25,10V21a.76.76,0,0,0,.75.75H20a.76.76,0,0,0,.75-.75V10l.82.57a.69.69,0,0,0,.43.14.72.72,0,0,0,.61-.32A.74.74,0,0,0,22.43,9.39ZM14.25,20.25H9.75V15A1.25,1.25,0,0,1,11,13.75h2A1.25,1.25,0,0,1,14.25,15Zm5,0h-3.5V15A2.75,2.75,0,0,0,13,12.25H11A2.75,2.75,0,0,0,8.25,15v5.25H4.75V9L12,3.92,19.25,9Z"/><rect class="cls-1" width="24" height="24"/></g></g></svg>