<svg xmlns="http://www.w3.org/2000/svg" viewBox="0 0 24 24.01"><defs><style>.cls-1{fill:#323232;}.cls-2{fill:none;}</style></defs><g id="Layer_2" data-name="Layer 2"><g id="Icons"><path class="cls-1" d="M18.92,10.25H16.41a.42.42,0,0,0,0-.16,3,3,0,0,0-3.07-3H10.71a3,3,0,0,0-3.06,3,.76.76,0,0,0,0,.16H4.92A2.75,2.75,0,0,0,2.17,13v6a2.75,2.75,0,0,0,2.75,2.75h14A2.75,2.75,0,0,0,21.67,19V13A2.75,2.75,0,0,0,18.92,10.25Zm-9.79-.16a1.54,1.54,0,0,1,1.58-1.5h2.67A1.54,1.54,0,0,1,15,10.09a.42.42,0,0,0,0,.16H9.1A.76.76,0,0,0,9.13,10.09Zm11,9a1.25,1.25,0,0,1-1.25,1.25h-14A1.25,1.25,0,0,1,3.67,19V13a1.25,1.25,0,0,1,1.25-1.25h14A1.25,1.25,0,0,1,20.17,13Z"/><path class="cls-1" d="M12,15.32a.75.75,0,0,0-.75.75V19a.75.75,0,0,0,1.5,0V16.07A.76.76,0,0,0,12,15.32Z"/><path class="cls-1" d="M12.05,7.06a2.94,2.94,0,0,0,3-2.9,3,3,0,0,0-5.94,0A2.94,2.94,0,0,0,12.05,7.06Zm0-4.29a1.43,1.43,0,0,1,1.47,1.39,1.47,1.47,0,0,1-2.94,0A1.43,1.43,0,0,1,12.05,2.77Z"/><circle class="cls-1" cx="11.98" cy="13.91" r="0.89"/><rect class="cls-2" x="5.78" width="12.54" height="12.11"/><rect class="cls-2" y="0.01" width="24" height="24"/></g></g></svg>