<svg xmlns="http://www.w3.org/2000/svg" viewBox="0 0 24 24"><defs><style>.cls-1{fill:#323232;}.cls-2{fill:none;}</style></defs><g id="Layer_2" data-name="Layer 2"><g id="Icons"><path class="cls-1" d="M12,2.25h0a9.75,9.75,0,0,0,0,19.5h0a9.75,9.75,0,0,0,0-19.5Zm8.21,9H16.72a16.14,16.14,0,0,0-1.93-7A8.24,8.24,0,0,1,20.21,11.25Zm-8.21,9a1.37,1.37,0,0,1-1.19-.7,14.68,14.68,0,0,1-2-6.8h6.46a14.68,14.68,0,0,1-2,6.8A1.37,1.37,0,0,1,12,20.25Zm-3.23-9a14.68,14.68,0,0,1,2-6.8h0a1.37,1.37,0,0,1,2.38,0,14.68,14.68,0,0,1,2,6.8Zm.44-7a16.14,16.14,0,0,0-1.93,7H3.79A8.24,8.24,0,0,1,9.21,4.25Zm-5.42,8.5H7.28a16.14,16.14,0,0,0,1.93,7A8.24,8.24,0,0,1,3.79,12.75Zm11,7a16.14,16.14,0,0,0,1.93-7h3.49A8.24,8.24,0,0,1,14.79,19.75Z"/><rect class="cls-2" width="24" height="24"/></g></g></svg>