<svg xmlns="http://www.w3.org/2000/svg" viewBox="0 0 24 24"><defs><style>.cls-1{fill:none;}.cls-2{fill:#323232;}</style></defs><g id="Layer_2" data-name="Layer 2"><g id="Icons"><rect class="cls-1" width="24" height="24"/><path class="cls-2" d="M17.5,12.25A4.75,4.75,0,1,0,22.25,17,4.75,4.75,0,0,0,17.5,12.25Zm0,8A3.25,3.25,0,1,1,20.75,17,3.26,3.26,0,0,1,17.5,20.25Z"/><path class="cls-2" d="M16.75,7A4.75,4.75,0,1,0,12,11.75,4.75,4.75,0,0,0,16.75,7ZM12,10.25A3.25,3.25,0,1,1,15.25,7,3.26,3.26,0,0,1,12,10.25Z"/></g></g></svg>