<svg xmlns="http://www.w3.org/2000/svg" viewBox="0 0 24 24"><defs><style>.cls-1{fill:#323232;}.cls-2{fill:none;}</style></defs><g id="Layer_2" data-name="Layer 2"><g id="Icons"><path class="cls-1" d="M17.23,9.52a1.75,1.75,0,0,0,1.32-.6l1.32-1.51a1.73,1.73,0,0,0,0-2.28L18.55,3.62A1.75,1.75,0,0,0,17.23,3H12.79s0,0,0,0a.75.75,0,0,0-.22-.53.77.77,0,0,0-1.06,0A.75.75,0,0,0,11.3,3s0,0,0,0H6.55A1.75,1.75,0,0,0,4.8,4.77v3A1.75,1.75,0,0,0,6.55,9.52H11.3V11H6.86a1.78,1.78,0,0,0-1.32.6L4.23,13.13a1.73,1.73,0,0,0,0,2.28l1.31,1.51a1.78,1.78,0,0,0,1.32.6H11.3V21a.75.75,0,0,0,1.5,0V17.52h4.75a1.76,1.76,0,0,0,1.75-1.75v-3A1.75,1.75,0,0,0,17.55,11H12.8V9.52Zm.57,3.25v3a.25.25,0,0,1-.25.25H6.86a.25.25,0,0,1-.19-.09L5.36,14.42a.23.23,0,0,1,0-.31L6.67,12.6a.27.27,0,0,1,.19-.08H17.55A.25.25,0,0,1,17.8,12.77Zm-11.5-5v-3a.25.25,0,0,1,.25-.25H17.23a.26.26,0,0,1,.19.08l1.32,1.51a.23.23,0,0,1,0,.31L17.42,7.93a.23.23,0,0,1-.19.09H6.55A.25.25,0,0,1,6.3,7.77Z"/><rect class="cls-2" width="24" height="24"/></g></g></svg>