<svg xmlns="http://www.w3.org/2000/svg" viewBox="0 0 24 24"><defs><style>.cls-1{fill:#323232;}.cls-2{fill:none;}</style></defs><g id="Layer_2" data-name="Layer 2"><g id="Icons"><path class="cls-1" d="M20,11.38H17.75V5.13A1.75,1.75,0,0,0,16,3.38H4A1.75,1.75,0,0,0,2.25,5.13v14A2.75,2.75,0,0,0,5,21.88H19a2.75,2.75,0,0,0,2.75-2.75v-6A1.75,1.75,0,0,0,20,11.38ZM3.75,19.13v-14A.25.25,0,0,1,4,4.88H16a.25.25,0,0,1,.25.25v14a2.78,2.78,0,0,0,.31,1.25H5A1.25,1.25,0,0,1,3.75,19.13Zm16.5,0a1.25,1.25,0,0,1-2.5,0V12.88H20a.25.25,0,0,1,.25.25Z"/><path class="cls-1" d="M13,7.38H7a.75.75,0,0,0,0,1.5h6a.75.75,0,0,0,0-1.5Z"/><path class="cls-1" d="M13,11.4H7a.75.75,0,1,0,0,1.5h6a.75.75,0,0,0,0-1.5Z"/><path class="cls-1" d="M10,15.44H7a.75.75,0,1,0,0,1.5h3a.75.75,0,1,0,0-1.5Z"/><rect class="cls-2" width="24" height="24"/></g></g></svg>