<svg xmlns="http://www.w3.org/2000/svg" viewBox="0 0 24 24"><defs><style>.cls-1{fill:none;}.cls-2{fill:#323232;}</style></defs><g id="Layer_2" data-name="Layer 2"><g id="Icons"><path class="cls-1" d="M0,0H24V24H0Z"/><path class="cls-2" d="M19.88,6.92a1.77,1.77,0,0,0-1.38-.67h-12L6,3.84a.76.76,0,0,0-.74-.59H3.5a.75.75,0,0,0,0,1.5H4.62l.52,2.41h0L6.68,14.4a2.74,2.74,0,0,0,2.68,2.18h.28l6.81-.68a2.76,2.76,0,0,0,2.4-2.07l1.35-5.4A1.76,1.76,0,0,0,19.88,6.92Zm-2.49,6.53a1.24,1.24,0,0,1-1.08.94l-6.82.69a1.26,1.26,0,0,1-1.35-1L6.8,7.75H18.5a.24.24,0,0,1,.2.1.25.25,0,0,1,0,.21Z"/><path class="cls-2" d="M17.11,18.52a1.07,1.07,0,0,0-.79.33,1.11,1.11,0,0,0-.33.78,1.12,1.12,0,1,0,1.12-1.11Z"/><path class="cls-2" d="M8.7,18.52a1.11,1.11,0,0,0-.8.33,1.1,1.1,0,0,0-.32.78A1.12,1.12,0,1,0,8.7,18.52Z"/><rect class="cls-1" width="24" height="24"/></g></g></svg>