<svg xmlns="http://www.w3.org/2000/svg" viewBox="0 0 24 24"><defs><style>.cls-1{fill:#323232;}.cls-2{fill:none;}</style></defs><g id="Layer_2" data-name="Layer 2"><g id="Icons"><path class="cls-1" d="M20,4.25h-.25V4A1.76,1.76,0,0,0,18,2.25H15a3.74,3.74,0,0,0-3,1.5,3.74,3.74,0,0,0-3-1.5H6A1.76,1.76,0,0,0,4.25,4v.25H4A2.75,2.75,0,0,0,1.25,7V19A2.75,2.75,0,0,0,4,21.75H20A2.75,2.75,0,0,0,22.75,19V7A2.75,2.75,0,0,0,20,4.25Zm-5-.5h3a.25.25,0,0,1,.25.25V17a.25.25,0,0,1-.25.25H15a3.75,3.75,0,0,0-2.25.77V6A2.25,2.25,0,0,1,15,3.75ZM5.75,4A.25.25,0,0,1,6,3.75H9A2.25,2.25,0,0,1,11.25,6V18A3.75,3.75,0,0,0,9,17.25H6A.25.25,0,0,1,5.75,17Zm-3,15V7A1.25,1.25,0,0,1,4,5.75h.25V17A1.76,1.76,0,0,0,6,18.75H9a2.24,2.24,0,0,1,2.11,1.5H4A1.25,1.25,0,0,1,2.75,19Zm18.5,0A1.25,1.25,0,0,1,20,20.25H12.89A2.24,2.24,0,0,1,15,18.75h3A1.76,1.76,0,0,0,19.75,17V5.75H20A1.25,1.25,0,0,1,21.25,7Z"/><rect class="cls-2" width="24" height="24"/></g></g></svg>