<svg xmlns="http://www.w3.org/2000/svg" viewBox="0 0 24 24"><defs><style>.cls-1{fill:#323232;}.cls-2{fill:none;}</style></defs><g id="Layer_2" data-name="Layer 2"><g id="Icons"><path class="cls-1" d="M21,8.38,19.77,7.21A1,1,0,0,0,18.65,7,1.31,1.31,0,0,1,17.2,7a1.3,1.3,0,0,1,0-1.45A1,1,0,0,0,17,4.45L15.81,3.27a1.28,1.28,0,0,0-1.13-.34,1.81,1.81,0,0,0-1,.51L3.08,14.16a1.46,1.46,0,0,0-.16,2.08l1.19,1.18a1,1,0,0,0,1.12.16,1.3,1.3,0,0,1,1.45,0,1.28,1.28,0,0,1,0,1.45,1,1,0,0,0,.18,1.12l1.18,1.17a1.23,1.23,0,0,0,.89.36l.24,0a1.81,1.81,0,0,0,1-.51L20.8,10.46A1.46,1.46,0,0,0,21,8.38Zm-1.23,1L9.09,20.12a.19.19,0,0,1-.07.06l-.81-.81a2.63,2.63,0,0,0-.47-2.83,2.62,2.62,0,0,0-2.83-.45l-.82-.81.06-.07L14.79,4.5a.19.19,0,0,1,.07-.06l.81.81a2.63,2.63,0,0,0,.47,2.83A2.62,2.62,0,0,0,19,8.53l.82.81Z"/><path class="cls-1" d="M7.27,13.27A.74.74,0,1,0,8,14,.74.74,0,0,0,7.27,13.27Z"/><path class="cls-1" d="M8.74,14.74a.74.74,0,1,0,.74.74A.74.74,0,0,0,8.74,14.74Z"/><path class="cls-1" d="M10.16,16.34a.74.74,0,1,0,0,1.47.74.74,0,0,0,0-1.47Z"/><rect class="cls-2" width="24" height="24"/></g></g></svg>